<?xml version="1.0" standalone="no"?>
<!DOCTYPE svg PUBLIC "-//W3C//DTD SVG 1.1//EN" "http://www.w3.org/Graphics/SVG/1.1/DTD/svg11.dtd">

<svg style="stroke-width:0.7pt; stroke-linejoin: round; stroke:#000; fill:#f3f3f0;" xmlns="http://www.w3.org/2000/svg" font-family="Helvetica, Arial, FreeSans, Sans, sans, sans-serif" height="501px" viewBox="0 0 516 501" width="516px" version="1.1" xmlns:xlink="http://www.w3.org/1999/xlink" enable-background="new 0 0 516 501">

<defs>

<style type="text/css">path { fill-rule: evenodd; }
#context path { fill: #eee; stroke: #bbb; } </style>

</defs>

<metadata>

<views>

<view padding="0" h="400" w="700" >

<proj lon0="1.75" id="laea" lat0="46.6" />

<bbox y="0" h="750" w="750" x="0" />

<llbbox lon1="4.0" lon0="-4.5" lat1="51.0" lat0="42.2" />

</view>

</views>

</metadata>

<g id="douala-arrts" >
<path d="M 304.04214160584,173.69125667818 L 352.47171501901,187.04632896207 L 394.91279535647,178.53799238671 L 411.86434428288,180.35062133622 L 434.73064460185,172.706139458 L 472.95564423781,127.16074518091 L 481.29102606648,82.117180940949 L 490.47668264929,79.24165642822 L 492.86863284253,78.309983584319 L 502.59593224761,69.227979207049 L 510.35159906531,71.143390419521 L 512.85238210439,68.747025948336 L 509.79537219046,62.150307597181 L 513.19722487992,57.506769173144 L 512.95931759454,53.91699468317 L 514.21655959389,49.780842548018 L 513.86055588994,41.225464985042 L 518.67947720436,42.90181859727 L 530.36543402734,52.346763048008 L 530.36362476451,64.484340179039 L 530.36335558483,66.282452731367 L 530.36309057722,68.080555502739 L 529.91331567142,69.878988124245 L 529.01419602347,70.778691199965 L 526.76659789438,72.578351847765 L 525.41807452184,73.927763904269 L 523.62027002692,74.827953350492 L 521.82263810209,75.278649710163 L 520.02516055674,75.279873820925 L 518.22773079219,75.730532537289 L 515.98115283856,75.732049574166 L 514.18369633411,76.631203672407 L 511.93648795612,77.978362918795 L 510.58817372246,78.87665892129 L 508.79053001698,80.224682452791 L 507.89220943996,82.02370616598 L 507.89315749403,84.273415436123 L 508.34764334007,86.083232061133 L 510.14282454015,87.427559401163 L 512.38723850182,88.771191191161 L 514.18311604193,89.666509635189 L 515.97932731538,90.561988015508 L 517.32668310512,91.458492636209 L 518.22497212832,93.255134378053 L 519.1233286375,94.6022888059 L 520.02170307079,96.848727949617 L 521.81883106737,98.194704032999 L 522.71749184189,99.092599863439 L 524.96450363142,100.88798308337 L 526.76246931133,102.23461654042 L 528.11115790719,103.1323857682 L 529.45984222926,104.92990665911 L 530.80863683263,106.72760001715 L 531.25814430684,108.52571433079 L 531.7075595074,110.32429658447 L 531.25743215735,112.12358119529 L 530.35756298379,114.37266126756 L 530.8068358212,116.62071097178 L 532.60554780265,117.96889417306 L 532.60516687055,119.76760160053 L 532.60478680394,121.56623904685 L 533.05417990759,123.36475253362 L 533.05378436478,125.16327757267 L 533.05482773773,126.96146864638 L 533.95484045057,129.21024407728 L 534.40416984306,131.00926720368 L 535.75573606644,132.80977362042 L 537.10508070237,134.15953647879 L 538.45412808167,136.4089174518 L 539.35336688827,138.20831928803 L 539.80236548263,140.00720063792 L 540.70112759273,142.25597100417 L 541.60093781372,144.50573704207 L 542.05071260965,146.75527712057 L 542.50050566754,149.00489114422 L 542.50025200364,150.80428915882 L 542.49994062473,153.05353204597 L 542.49975771302,154.40307411476 L 542.49944455467,156.65233322443 L 542.04909718062,158.4511630154 L 541.14868598191,160.24933944551 L 540.24839784265,161.59758345356 L 537.99823353713,162.94380187958 L 536.1984560966,163.39096191881 L 534.39897175842,163.38834952926 L 532.1499733734,163.38508249651 L 530.35116350663,162.48316624767 L 529.00229753125,161.13239098072 L 528.10326313914,159.33270212962 L 527.20431988933,157.53427130182 L 526.30497996661,158.43283437477 L 524.50643849149,159.78094360917 L 523.15752864126,160.23092186724 L 520.90915498157,160.23274470453 L 519.11024550791,160.23420020662 L 517.31167216143,160.23381810571 L 515.51319460248,157.98578627552 L 513.71469449831,156.63668744413 L 512.36576872316,154.83821470097 L 511.91607678427,153.48950579946 L 511.91598748709,151.69134309028 L 511.91589905375,149.89310127014 L 511.91580765853,148.0947761719 L 512.36539227587,146.29648083783 L 513.26468335235,144.49820833246 L 513.71432821884,142.6997223372 L 514.16399168943,140.90114196843 L 513.71422482586,139.10227866526 L 512.36502761558,138.20258990464 L 510.11643408857,137.75242612543 L 507.86793601987,137.75197263331 L 507.86812064068,139.55072838754 L 507.86824860669,140.89973824808 L 507.86848916542,143.1479830061 L 507.41902252098,144.94637296338 L 506.07027257845,146.29483549423 L 504.27196251288,147.64311223469 L 502.47369048575,148.54175177512 L 500.67551123159,149.44035588281 L 498.42796182419,150.78830319582 L 496.6298784034,151.23729807834 L 494.8319705852,152.13576649026 L 494.38295107964,153.93354838011 L 495.28234223825,155.28222120127 L 497.53014104089,156.1818510171 L 499.77777146492,156.18258815941 L 502.02556728371,156.6327783273 L 503.82389967985,157.53230407303 L 505.17276025642,158.88111467984 L 506.9711378223,160.23007971011 L 507.87039835417,161.5786949021 L 509.66877468149,163.377034196 L 510.11842877076,164.72541553732 L 509.21944976507,166.07320982203 L 507.42139035295,166.52185481728 L 506.52245630647,167.42020924334 L 504.72464468598,168.76747260956 L 503.37646973186,170.56417638477 L 503.82614635156,171.9122780843 L 506.07351607714,171.91326523827 L 508.32165891426,171.91253849745 L 510.12037984285,171.46188912862 L 511.91898174621,171.01126976574 L 513.71748096326,170.56068451051 L 515.5158568959,170.11012931817 L 517.31426241318,170.10815368197 L 519.56141488416,170.55843626355 L 521.35872669326,171.91002237646 L 523.15646590336,171.91318920681 L 524.95451903819,171.46679148793 L 526.75279692369,171.02034619388 L 529.00078798186,171.92349009693 L 529.89982045594,174.17332639687 L 530.34939360484,175.07346524159 L 532.14801963023,177.32527918348 L 533.49719524684,178.67705226089 L 535.29655578087,178.68068947096 L 537.09615014956,178.68432403797 L 538.44581793916,180.03642536428 L 538.89555252175,181.83654698853 L 539.79532081535,183.63772616087 L 540.24509323985,185.43802402676 L 541.5942436441,187.68758566199 L 543.3961650953,188.14720693696 L 544.74642971292,188.59969882407 L 546.54602301311,189.05013767809 L 548.79532038189,190.40014147657 L 550.1448528843,191.30009417016 L 551.94418800489,192.64991125969 L 554.19362085097,193.55024429281 L 555.99293923947,194.90006349105 L 558.24220062564,196.2500902095 L 559.14158595279,197.59950073774 L 560.49073868691,199.39875452711 L 561.84004857874,200.74835522077 L 562.73901877242,202.99700682915 L 563.6381418768,204.79598859907 L 564.08713500356,207.04432604408 L 564.53629791034,208.84297806805 L 564.53571385225,210.19178616359 L 564.53435646569,213.33888595915 L 564.53339517185,215.58673204404 L 564.08288322226,216.93517827427 L 561.83320605828,217.38353583076 L 560.03364071836,217.38258524806 L 557.78420600625,217.38139881023 L 555.53483386389,217.3802312476 L 553.7353591791,217.37929453992 L 551.93589480358,217.37836960411 L 550.13646572249,217.37742192272 L 548.33707813555,217.37649009653 L 546.08812766334,216.47629912842 L 544.73911706379,214.67750737444 L 543.38996595078,213.32822569172 L 542.48992609136,214.67636684891 L 542.93927333867,216.4746724057 L 542.93892376468,217.82319391782 L 540.68958796423,218.72103587782 L 540.23930083546,220.51865349785 L 540.6885348919,222.31592092238 L 542.03762065683,223.21504879897 L 544.28623427438,224.11461371364 L 546.53471776049,225.46339737826 L 548.78348925411,225.91373974249 L 550.5826950604,225.91461826623 L 552.38168895284,226.36473413089 L 554.18070774176,226.81484849442 L 555.97973091632,227.26495930037 L 557.77826202472,228.61351667365 L 558.67712471325,229.96157823611 L 559.12544078174,232.65690193174 L 559.57529415592,234.45716045159 L 559.57577575764,237.60858185979 L 560.02601771448,239.41025867821 L 561.37423838949,241.20697490544 L 562.72322055023,242.10619459216 L 564.97321507869,242.11021126819 L 566.3232759478,242.11262727092 L 568.12346359892,242.11581268526 L 570.37380191402,242.11983743817 L 572.17417109392,242.1230501088 L 574.42414619399,242.57556249585 L 576.22340330897,243.47574736505 L 577.57250629012,244.37511915556 L 579.37106172589,245.72376518306 L 580.26927268958,247.07070707082 L 580.71658451152,248.86511836729 L 580.71586830812,249.31348416985 L 582.03161485363,254.67402360341 L 582.03705607698,256.47000577101 L 581.5856218041,258.2695432924 L 580.23003733295,260.07105552925 L 578.42375706976,262.32242093435 L 577.07117662724,263.67264602698 L 576.16446454253,265.47404528554 L 574.80966642598,267.27451813864 L 576.14928151588,268.17731450654 L 578.83545281323,268.6312609117 L 581.07026071428,269.53483239511 L 581.53554951032,270.4283129032 L 581.09527469367,272.67263515454 L 580.65136085677,274.46892981918 L 582.02894458274,276.25963474836 L 582.02401705731,278.50926079924 L 581.57089802191,280.30860376964 L 579.77125173086,281.65745737556 L 577.50111989208,281.66174198115 L 575.20312774722,280.3246758572 L 575.66383095929,280.77135575659 L 577.50796303365,282.55940683544 L 578.86811718431,283.90625388551 L 580.21367773831,284.80631005727 L 581.55717031216,286.60577419178 L 581.10415686723,288.40447770029 L 579.75299746999,290.20280057182 L 577.50559209132,291.10151091349 L 575.25816167462,292.00023564533 L 573.46072634241,292.44942990767 L 572.10016440416,293.798744384 L 571.6564899402,295.5964451099 L 569.82824058388,295.59753007022 L 567.08867109852,295.59914995568 L 564.37215341051,295.59980504111 L 562.1329428621,295.59916631872 L 561.68509185197,296.94599731652 L 563.47658892035,297.84433281325 L 565.28577983591,298.74250353351 L 567.11406751291,299.19194146859 L 568.94400809316,299.6418033928 L 571.20415264707,299.6422915511 L 573.4496214105,299.64264082848 L 575.69427355485,300.09249203362 L 577.93946766243,300.09282995493 L 579.73553417267,300.09310129342 L 582.43333691217,300.09357434991 L 584.68513040946,300.09400662718 L 586.9374274773,300.54398172135 L 588.28984427268,302.34249768474 L 589.64210542295,303.69158747201 L 590.99446285329,305.04078314862 L 592.34637576403,305.49082743286 L 594.59807464794,305.49146199722 L 596.84893350493,306.84095212775 L 598.19934662987,308.1902512392 L 599.54970431554,309.98924564481 L 600,311.33837192027 L 599.09858239314,313.13658289033 L 598.19767921508,314.48514793181 L 596.39631634054,315.83330643698 L 595.49536929767,317.63138737214 L 595.49501904242,318.98021940802 L 595.49442781262,321.22827572001 L 594.59386795683,321.67744530439 L 591.89255002985,322.12572531928 L 589.64170706649,322.12460823411 L 587.39077272682,323.02262617646 L 587.39032226166,324.82085531678 L 587.38998741175,326.16951955545 L 587.38942950286,328.41727430324 L 587.38897504235,330.21547925256 L 586.93840211623,332.0133910844 L 588.28843060706,333.36289369617 L 589.63885544361,333.36375514558 L 592.33996241823,332.91591686595 L 593.69099402172,331.11843378558 L 594.14096426761,332.01789392913 L 594.59070641326,333.81654165176 L 594.58988624346,336.963658414 L 594.58941919042,338.76199889616 L 593.23848206817,340.10976188956 L 591.43741531558,341.45712486235 L 590.08672384968,342.35521404552 L 588.28593938951,343.25292328053 L 586.48503819844,345.04963806171 L 587.3847636479,346.84847480292 L 586.48406850525,348.19622641021 L 584.23364445893,348.19433379034 L 582.88360532247,347.74371615583 L 581.08388307281,346.39380439402 L 578.38388833358,345.94212120983 L 577.93347349251,347.2901303417 L 579.28318482526,348.19015524266 L 579.73243606624,350.43781154125 L 579.73182727082,352.23561847978 L 578.83105762891,354.48201449657 L 577.4809425455,354.93019318873 L 575.23081346755,355.82693258165 L 573.43061543468,357.17342655103 L 572.5301964893,358.97013752432 L 572.52962387364,360.76769574016 L 573.42887592883,362.56616940512 L 574.77808607149,364.36514259382 L 574.77749281574,366.16270203711 L 573.87705189779,367.95924628843 L 573.42700034766,368.40814313707 L 571.53990854185,371.96222500776 L 562.10250391622,373.76104479008 L 560.30474228703,373.76082242305 L 558.95614701194,372.86066231496 L 556.70883932561,372.4103928452 L 555.36005895301,370.61030840758 L 554.01155279717,369.71018488692 L 552.21366100071,368.81006316571 L 550.41867607713,368.81870140658 L 548.62371793361,368.82851575438 L 546.82838583386,368.8383921501 L 544.13105634863,368.83801664214 L 541.88243459892,367.9341126578 L 540.0839484477,367.93213910484 L 538.28538028712,367.479475612 L 536.93713563503,369.28071157402 L 535.58868407432,370.63133740643 L 533.7904787948,371.53076744169 L 532.44177180401,371.97996192896 L 530.64342543829,371.97791329473 L 528.84508680225,371.07443585515 L 527.94589376831,369.27070673214 L 527.9457958761,367.4681668634 L 527.04678642237,367.01659215706 L 524.34995424287,366.56306017155 L 522.55218244668,366.11055893673 L 520.75445835747,366.10862496822 L 518.95664256724,367.00780741648 L 517.15870596297,368.35757274659 L 515.81024111194,369.25727676618 L 514.01274533888,368.80470021669 L 512.21567589001,367.45104541872 L 511.31763418128,365.64799646931 L 509.51995126118,366.5470756024 L 508.17135380499,367.89720215211 L 506.37362012686,368.79633396856 L 505.02516301624,369.69597380546 L 503.22710912046,371.04570074262 L 500.53123713783,371.04270492461 L 498.28476417649,371.04019756479 L 496.03766470758,370.59137460268 L 494.23960255797,369.69478414828 L 492.44120560517,368.34988367977 L 491.09236701388,369.25021002359 L 489.29387795831,370.60034354225 L 487.94234049413,372.85658036879 L 486.14153650981,373.31441462169 L 484.34096656636,373.32142352448 L 482.089884364,373.33021754659 L 479.8396030344,372.43706711393 L 478.03941715093,371.54210309816 L 476.69012394167,370.19437115522 L 475.34078380942,368.84662484011 L 473.54026773631,367.95141654974 L 471.73820796219,367.9580809284 L 469.93588476184,367.96474665372 L 468.13331038929,367.97140364661 L 466.33047876108,367.97805794223 L 464.52739974424,367.98473399869 L 462.72325308761,368.4425608659 L 461.3688931391,369.34993770603 L 459.11146633951,370.71215027992 L 457.30722657866,370.71902934106 L 455.50274494667,370.72590168462 L 453.25320914826,370.72490365066 L 451.00626665675,370.72020836068 L 448.31022770337,370.71458086541 L 445.61447987081,370.70893245008 L 442.91900658497,370.7032996889 L 441.12173964398,369.80041389309 L 439.7733027331,367.99938764673 L 438.42462603318,366.19865489943 L 437.52520532215,364.39881118069 L 436.6262652268,363.49809605763 L 434.82150002484,361.70412589245 L 433.46259297522,360.36381668634 L 431.65428030712,358.57233255419 L 430.75953926987,357.21727124102 L 428.51939731421,355.40829750914 L 426.72449704356,354.0541332966 L 425.82086513774,352.70771663623 L 424.01672842934,351.36154060172 L 422.21586681668,351.36224084467 L 420.41498902162,351.36292789226 L 418.61405112289,351.36363693447 L 416.36406298572,351.81349099546 L 414.11530758932,352.71234126141 L 411.86534048391,353.1622051609 L 410.06432190199,353.16292288122 L 408.71483454435,353.6124387038 L 406.46351212374,353.6133460689 L 404.21211523491,353.6142778277 L 401.95923250872,353.1662058222 L 400.15659550336,352.71794226828 L 397.90498779987,352.7188484914 L 395.65181843932,352.27074161141 L 393.84889933315,351.82244171587 L 391.5940310974,350.92520491843 L 389.79090028474,350.47685480803 L 387.08846184111,350.47793524267 L 385.73803473934,351.82798040606 L 383.92428420208,351.38588724817 L 382.57512088786,349.13469132922 L 381.67569151941,347.78394466122 L 381.67637274389,345.08307705935 L 381.67722128241,342.83220125671 L 381.67821603783,340.13118824157 L 381.67924764465,337.43019623486 L 381.68010349985,335.17938778901 L 381.68095084371,332.92861034168 L 382.58118454678,331.12832597168 L 383.03165058279,329.32788718104 L 383.48209709513,327.52746699532 L 383.93289956438,324.82673498311 L 383.93375257291,322.57602118932 L 383.93441332775,320.77545816468 L 383.93525365567,318.52477642762 L 383.03639048715,316.72398262527 L 381.68743611462,315.82331724855 L 380.78875615561,313.57245489606 L 380.33968506937,311.77186762443 L 379.44103365884,309.52107279205 L 379.44174638098,307.72064874699 L 379.44223968853,306.37034082041 L 381.2421200145,304.12025485048 L 382.59204543629,302.32018853638 L 383.94184416274,300.97017536618 L 384.39226277094,299.16987040521 L 382.14383230882,298.2691980584 L 380.79429520864,298.26895906087 L 378.54378926478,298.26883966266 L 376.74357827179,298.71876987494 L 374.94354285205,299.61872629094 L 374.49421877245,301.41876490291 L 374.04489152263,303.21879782374 L 373.59557812917,305.0187843498 L 373.59556596992,306.81898257244 L 372.69560707469,308.16903317682 L 371.34574500932,309.96904354949 L 369.99626598817,310.86887704717 L 368.19712244995,310.86847832008 L 366.39678765993,310.86840108213 L 365.0465408364,310.86835753145 L 362.79609709644,310.86825978175 L 360.99531808199,309.96822506684 L 359.64548877187,310.86814758223 L 358.74640784528,313.11803940655 L 357.84691916273,314.46793598052 L 356.94785300636,316.71776737613 L 356.04879969791,318.96756798112 L 355.14957895211,320.76735911971 L 352.89943642207,321.21725522641 L 351.54944848754,321.66716671026 L 348.84924903535,322.11705848426 L 346.59911988232,322.56697755944 L 344.79904859071,323.01690612191 L 343.44909160243,323.46681860123 L 340.74862055081,323.46676511455 L 338.94857836078,323.91669464685 L 337.14802578469,323.46671238421 L 335.34107647325,323.01841947436 L 333.06881177471,323.02457920072 L 331.26438104356,323.47571978483 L 330.81305921458,323.47604628545 L 327.38529225011,323.92871146203 L 322.12608719901,319.7623738275 L 328.02528582255,316.21919846601 L 328.028968232,308.81667730597 L 332.43347269628,305.93069384277 L 332.37757189694,301.93786013762 L 328.64884946381,301.57344800747 L 322.82287728827,297.83433348951 L 330.76726006928,295.5331785247 L 326.81441877263,287.05298109743 L 331.31166118734,284.22571463652 L 337.1941302954,283.67138595332 L 339.96666424951,268.46394930532 L 322.23355762193,260.94810840706 L 300.30539450717,242.08494559147 L 291.57627564388,242.58924639467 L 291.54837882196,237.85949856373 L 311.13067692585,209.51801291696 L 311.41279328016,202.19515745099 L 298.45443223439,199.31260126171 L 299.53598664758,191.30262347962 L 292.96477793828,191.68803930418 L 274.3268155723,185.60203116698 L 297.38498857276,174.98365642362 L 304.04214160584,173.69125667818" data-id="Douala-III"/> 
<path d="M 222.55297212033,113.99692443572 L 220.7122389712,112.73058766495 L 219.86398485248,110.75396895834 L 219.15609733299,110.47384511188 L 218.59000920325,110.05181970689 L 217.8820984262,110.05455942668 L 217.4577080094,109.63206031558 L 217.17499379053,109.06764562948 L 217.03383626501,108.5026724231 L 216.89298741429,107.65469105915 L 216.75614393771,107.08174445178 L 216.48212494841,106.35930142112 L 216.34746346642,105.78104504747 L 216.34798635284,105.63866298236 L 216.22729700154,104.47942946003 L 214.35779451847,101.92801253976 L 212.38371311432,100.65445562522 L 210.132925045,96.266699880042 L 209.28591553942,93.721908264947 L 209.14273118559,91.321359782246 L 208.86351346299,89.621470376386 L 207.16646164535,80.860107885495 L 206.57068696114,78.488275787705 L 205.01000837455,73.833694703333 L 204.86318732591,70.313056308473 L 204.30220453986,62.262819987275 L 201.41053209697,61.68984216272 L 197.30495081428,60.002772577547 L 194.90068376757,59.442954542829 L 192.53845191198,58.708114869969 L 190.52428583945,58.706170373538 L 188.51001465857,58.704227896525 L 186.49564879703,58.702279287191 L 184.48117957312,58.700351044039 L 183.47398747513,57.187737040646 L 183.47408288953,55.172214418928 L 183.47419832782,52.652791894812 L 183.9779434982,50.63778198077 L 184.98529100662,49.127186587102 L 185.48905437951,46.60831903502 L 183.97816054902,46.102736270717 L 181.96352123361,46.100494433359 L 179.94876361627,46.602168467496 L 177.93391861099,46.599946952173 L 175.91896835009,47.101655562193 L 173.4001501441,47.602849173611 L 171.88877988412,47.601253598909 L 168.8658885535,47.598124049175 L 167.35436802931,46.084570229255 L 167.35440683327,44.06857133142 L 168.36211427881,43.061682143656 L 170.37749936633,40.543942070272 L 172.39276865283,39.538241511245 L 173.90420627113,37.524109828218 L 173.40046032067,36.011561003794 L 171.38524514676,35.505191305867 L 169.3699259153,35.502808165561 L 167.85839041749,34.493002482404 L 166.34630435013,32.983522318978 L 164.32994801394,31.480534178839 L 164.33000492168,29.96846212999 L 160.80299466322,26.940787986094 L 153.24463953601,30.977523097381 L 156.26794967744,38.536007044599 L 157.77975992021,40.5432168614 L 159.29171418503,42.04856393725 L 160.29986212484,43.556925313928 L 159.29197853001,45.572023757322 L 157.78011963798,46.578541560616 L 155.76420456744,47.08434398199 L 153.74836662634,47.591146326098 L 151.7326851083,48.097913830911 L 149.71724209474,48.101883605775 L 147.70200321703,48.106067837278 L 145.18322854274,47.608645356313 L 144.67990538963,46.101589930218 L 143.67306217779,44.093185168025 L 143.16906028126,42.076524354159 L 142.66488504636,40.05875663313 L 141.65685109439,38.040902353622 L 140.64886794753,36.527419612751 L 138.12942648378,35.518418359175 L 136.11402444131,35.518425959068 L 134.09862355218,35.518427503635 L 132.08307655626,35.013915032612 L 130.06713564406,33.500326898408 L 127.54741216134,32.491250624711 L 126.53886364512,30.472981352216 L 128.04955721409,27.949973867781 L 130.06498577093,27.445337356787 L 132.080098401,25.931425725446 L 133.09036937911,24.43228468791 L 134.09919039527,22.423134933781 L 135.61103978405,20.913926991778 L 137.62673990338,19.909188789336 L 139.64234225995,19.408206454248 L 141.65784860645,18.907236289194 L 143.1694172723,17.398252208474 L 145.18475151047,15.38638394705 L 147.19998542939,14.885554070298 L 149.21512748275,14.888394861247 L 151.23016860517,14.38760875304 L 152.74138186912,12.87890592919 L 155.25995267169,11.875318925893 L 157.27469796088,11.374647428431 L 158.78571594111,11.376836010012 L 161.30396649256,11.380887233517 L 163.31843060703,11.384422813671 L 165.83663911855,11.384388889454 L 168.35521500986,11.380971835034 L 170.8739393776,11.377577317241 L 169.36315260438,9.8642706268761 L 167.34854865171,8.3516120561771 L 165.33368309132,7.8492615790984 L 162.81512108776,7.3476070771386 L 160.80034807803,6.8452834679199 L 158.78564172916,5.8378155236409 L 156.26726332575,5.3321368749948 L 154.25250058134,4.8251267386344 L 152.2376419525,4.3181265474021 L 150.22266560575,3.3077135702843 L 149.215165718,1.7958119964454 L 148.71140240978,1.2915095366809 L 145.03924497513,0 L 136.38153043197,0.49037039021823 L 129.05964655931,5.792654260334 L 118.47431604032,4.769180597975 L 109.90330422899,5.7639853136985 L 107.88810433735,5.765887939023 L 105.87305710465,5.768017223471 L 103.85852571961,6.779085077984 L 101.34039451202,7.7906371343968 L 99.326085702192,8.8016015187809 L 97.312127820238,10.316960158045 L 95.298285773414,11.832225859092 L 93.283722203649,11.834273172752 L 91.268116178272,9.8187878749198 L 91.266429741103,6.792387604013 L 90.256145424895,5.2758716250047 L 88.739246811066,3.2501015753314 L 86.718471966389,3.2403490331644 L 84.193325920587,3.2304539005329 L 82.17442204625,3.7294253760584 L 81.165933969875,5.7446650792951 L 80.15769994658,8.2644531181332 L 79.65433760254,10.785563563405 L 79.150657815059,12.802174265248 L 78.646999588121,14.818797200769 L 77.63849101087,16.834099884251 L 76.629967536365,18.849454435704 L 74.10546597152,18.8432653011 L 71.580687418857,18.837152527338 L 69.562228566053,18.834321725535 L 67.054903293023,17.844287720332 L 65.549342262367,16.341274544677 L 64.042512576096,14.332531156046 L 63.037753104826,12.824893951844 L 60.515955956176,9.7988374505298 L 59.002609284174,6.7734346980502 L 58.577853288019,2.3108368951501 L 41.350284606178,2.2231072737009 L 26.721311335205,0.19513200989799 L 21.416367500585,5.458579700925 L 21.68084708135,17.836936205618 L 16.693170423918,27.920700083571 L 9.8368595779072,29.087390460919 L 5.0409782946827,34.46787632917 L 6.0504737793941,37.493022413422 L 4.0336885283029,37.996952355549 L 2.0166763835336,37.996705626891 L 0,39.004803862094 L 0.00087167306249039,41.525653737241 L 1.5141222352116,43.038298602332 L 3.5316127695109,44.550988944569 L 5.0448445842739,46.063616934437 L 4.0370366385102,48.080131027183 L 2.5249988764886,50.096574837652 L 1.5170178633807,51.608919077078 L 1.5176911285296,53.625478348402 L 2.5268583582579,55.642146213861 L 4.0397169124037,56.146378460423 L 6.0566169589442,56.146554145068 L 8.0731836582745,55.138471093057 L 10.5939637416,54.130452196659 L 12.106444533047,53.626449848081 L 14.627659697285,52.618690626469 L 17.149163747697,51.611169854886 L 19.166438076499,51.107644169848 L 21.688155222148,51.108377715561 L 24.209824292103,51.109134837173 L 26.731436599457,51.109901341758 L 29.252824837102,50.606540524445 L 31.270038882258,50.607161970219 L 33.791512999811,50.607923353205 L 35.808907166466,51.616721006739 L 37.322105411718,53.129415692008 L 37.322641761529,55.145712840147 L 35.81050372693,57.665659815155 L 34.802662026598,60.185755038545 L 34.803170383679,62.202018477788 L 34.80359227309,63.714215706056 L 37.325156748648,64.72296719767 L 39.846673657176,65.731684804066 L 41.863876704668,66.740252840162 L 43.377071303538,68.756779407865 L 44.385897052337,70.269110116733 L 44.386389086299,72.285220540431 L 43.882676126258,74.301220932503 L 45.395559955485,75.309566259778 L 46.908538708974,76.821920057972 L 45.900512181858,78.3337665915 L 43.380808263795,80.349806448298 L 41.363978131781,80.349453480321 L 39.347604634721,80.853288439723 L 36.826977423671,81.35704764068 L 34.811086190808,82.365113139044 L 34.308988897189,84.381804795626 L 34.31059608558,85.894346211076 L 36.833764865939,87.911367258675 L 39.355792649432,88.920006249133 L 41.87722329596,89.424497171743 L 43.894371253621,89.92890360354 L 45.911497736018,90.433295675879 L 46.415670026343,90.433363442372 L 53.472192855328,88.92206161729 L 58.514896908886,88.923564872162 L 64.053002255687,81.866259981963 L 64.04870412409,74.808814490699 L 64.047292651877,72.792147461312 L 64.045877599684,70.775429419568 L 64.044483481832,68.758680680557 L 64.043086377697,66.741844250683 L 64.041665095314,64.724964912423 L 64.040261085602,62.708018257136 L 64.038874094237,60.691012487613 L 66.557785287897,59.178193968733 L 68.577098225399,58.677190865878 L 72.111377869528,58.179156599494 L 74.132554976328,57.680533778785 L 76.659239921959,57.687706653747 L 78.173238798705,55.674933141357 L 79.687569896871,54.166546513657 L 82.212065580008,52.661341418518 L 84.737413306455,52.668962145611 L 86.253195511853,53.681906157737 L 87.264660885121,55.701442627074 L 89.280943870154,57.214230935144 L 91.295150731384,58.220862832239 L 92.805967043777,59.227819949846 L 94.316785511788,60.234820448733 L 96.331309217725,61.745479769696 L 97.842711591371,62.753193397818 L 99.355670413431,65.273834943375 L 100.86774081448,66.786140177123 L 102.88302699887,67.794289626314 L 104.8968735272,68.296805336058 L 107.41167167379,68.795457122039 L 109.42423123603,68.792168729135 L 112.44234971763,69.792993689281 L 113.95164948856,70.293468742174 L 115.96295326838,72.302124446738 L 114.45145011873,73.813458338885 L 115.45622171147,75.82413260347 L 116.46112832174,77.835102793975 L 115.95609691445,79.848924975303 L 114.44506423726,81.361555210971 L 111.92785140572,81.868440373207 L 109.91392087438,82.878098299808 L 107.90045780922,83.384215840367 L 109.40948792479,84.892756061465 L 110.91877061538,85.897716299539 L 111.92175976707,88.411594704985 L 111.92096801536,90.93034618598 L 109.9057230508,91.938833889144 L 107.89068226449,92.443544258298 L 105.87535994619,93.955752711333 L 106.37833420389,95.970579383932 L 108.89640538975,97.480857288311 L 110.91091395025,98.99143477227 L 112.92568480169,99.998281019149 L 112.92506538849,102.013667431 L 112.924448084,104.02909667779 L 112.92382105792,106.04460742574 L 112.92320479044,108.06016307179 L 113.42642533277,110.07564593237 L 114.93733927072,112.09092302014 L 115.44059746291,114.10658584085 L 114.43228832371,116.1226987535 L 112.92011585256,118.13894703466 L 110.39633079803,132.25210406073 L 113.92391396465,131.24360994882 L 120.97962675881,129.73061947707 L 123.50105378413,129.73073124866 L 125.01364692484,129.73074824632 L 128.54294503322,129.73078550519 L 130.05554210245,129.22671945322 L 132.5763660597,129.22675899004 L 134.08857350924,131.24310067088 L 134.08832235552,133.7635815321 L 134.08813041186,136.28413867146 L 134.08800483247,137.79650043178 L 135.09616553371,140.31711440601 L 136.1044019982,141.8294849649 L 137.6167509678,144.35012237224 L 138.12089465823,144.85424662139 L 140.75135861016,148.41341214019 L 156.42676019126,147.32905917751 L 170.88744823475,149.38958978698 L 174.91968920548,148.88535599483 L 177.51073769466,148.07515034577 L 178.07634977827,147.79215189623 L 178.50049823979,147.6507156362 L 179.34881563455,147.22626672405 L 179.77297025743,146.8017136644 L 180.33841117766,146.37727014709 L 180.90376941077,145.95291879214 L 181.32781918124,145.38767365667 L 181.75188146958,144.82239667696 L 182.03473131598,144.25730827568 L 182.45894959127,143.97478786673 L 183.44851233193,143.83339305511 L 184.01398981833,143.83339509953 L 185.00357099016,143.83339887564 L 185.56936494261,143.69218862062 L 186.27604543802,143.55073106835 L 186.98314904269,143.12669022506 L 187.6894046795,142.70242034389 L 188.53663171195,142.41953354657 L 189.52480459552,142.13669457876 L 190.2304912855,141.71264995085 L 191.0771157982,141.42998253886 L 191.50037864433,141.00609456408 L 192.20566586793,140.72355376902 L 192.76981726829,140.29978915181 L 193.05186869064,140.01730009572 L 193.61589030942,139.59363924457 L 194.17980767385,139.31128402399 L 194.743669942,138.74651442307 L 195.30744828892,138.18182972489 L 196.15289947007,137.75857759267 L 196.57555752032,137.47639152922 L 197.27983395522,137.33557917534 L 198.40643733464,136.77155603557 L 199.11039484372,136.3485576457 L 199.95980158025,136.06562754612 L 200.53135493493,135.92270517654 L 201.38859198953,135.63771008022 L 202.09679612835,135.35468290675 L 202.80210648203,135.07242084498 L 203.64922389156,134.93130174365 L 204.35440245099,134.64908082967 L 205.19834401294,134.22630050402 L 205.90132720762,133.94472618611 L 206.60412957756,133.66322308412 L 207.16623981582,133.66399213457 L 207.72823171921,133.805944163 L 208.29288683498,133.9471584178 L 209.14115581836,134.08806920422 L 209.84829058428,134.22899365656 L 210.69448265366,134.22922868407 L 211.25857261583,134.22938627864 L 212.52944814406,134.51174431016 L 213.65565366399,134.65358982766 L 214.07761577334,134.79506185795 L 215.20386986487,134.93679611513 L 216.33395123018,135.07783289635 L 217.32310313755,135.07768026694 L 218.17644904848,135.2178717094 L 218.74589399572,135.35836689935 L 219.59854756523,135.35759286948 L 220.02615955762,135.49826890463 L 220.73944048365,135.77982709584 L 221.30950619714,135.92046857516 L 222.02196722069,136.06103286675 L 222.73463803212,136.20163677844 L 223.44621835536,136.20109049222 L 224.30165906176,136.34164575085 L 224.44536635949,136.48276552875 L 226.00361750079,135.49283441371 L 227.13387579546,133.93782565848 L 227.12201080983,133.23293669043 L 227.4047675358,132.95025242003 L 227.82599009449,132.24408637891 L 228.25444398852,131.96058424403 L 228.67688932458,131.67821571109 L 229.38407795772,131.25411492762 L 229.95595259297,131.11147895759 L 230.52798497526,130.96880723445 L 231.10003742248,130.96751903422 L 231.52421033361,130.82613673297 L 232.23102765239,130.40200216688 L 232.23062497416,129.83650627722 L 232.08645561726,129.27155453273 L 232.0814637797,128.84857472649 L 231.6444546218,128.28628584131 L 231.35269115216,127.86462401939 L 231.20276858441,127.30170244497 L 231.19460164108,126.59758514064 L 231.19738816899,125.60787999197 L 231.19940323166,124.90086918463 L 231.0602253711,124.05248333517 L 230.63700688326,123.48710844919 L 230.2129947039,123.20457835528 L 229.77992354348,122.50160004444 L 229.34031931907,121.80152007751 L 229.20019288074,121.23621885999 L 228.91860816261,120.5297640863 L 228.63658796983,119.96469356794 L 228.07039304704,119.54160748749 L 227.64754325569,119.11756480071 L 227.22814852482,118.69185571376 L 226.80867350616,118.26607017089 L 223.86017665495,115.43066402781 L 222.55297212033,113.99692443572" data-id="Douala-IV"/> 
<path d="M 306.614935912,84.575830645927 L 306.54329494549,86.361999701438 L 306.78365429597,87.849718205314 L 306.73587730429,89.040398592323 L 307.27657368928,90.528911669499 L 307.81772633789,92.018695068769 L 308.67096996765,93.214345733935 L 309.22390267295,94.410452496548 L 309.18773102142,95.30496666091 L 309.12745190865,96.795602782934 L 308.47833566635,97.982395682755 L 307.54201133938,98.867203123526 L 306.60605344114,99.751887176554 L 305.36309250897,100.92616761332 L 305.31511622497,102.11473028243 L 304.38277320322,102.99508082449 L 302.86977716046,103.56761561109 L 301.07592935476,103.83784535561 L 300.15175212956,104.71173329771 L 299.23943862487,105.29036049832 L 298.88640329603,106.7612613809 L 298.815554456,108.53423180547 L 298.75167172396,110.01677582715 L 298.39543280537,111.48928189325 L 298.05380102921,112.66293314183 L 297.41702184427,113.82982854356 L 297.07593493597,115.00189590866 L 296.44017787652,116.16663469196 L 296.38286345909,117.63844889436 L 296.04234478104,118.80849228727 L 295.99651919864,119.98551310195 L 295.93924125832,121.45670334005 L 295.96026360361,123.89496972001 L 296.36204014543,124.74449046121 L 298.41938262341,125.95340399926 L 299.50255787627,126.44924615542 L 300.61177734176,126.9367914566 L 301.54985537351,128.3677987698 L 301.95165140553,129.57556879796 L 302.07071904425,131.10065699694 L 302.44538245516,132.12581589809 L 302.48746707181,133.55799166972 L 302.66633782539,134.72148755078 L 303.07028634902,135.70516488544 L 303.56229274989,136.91322795712 L 303.78618408154,137.94198733593 L 303.34072624205,139.72878880119 L 302.1777248237,140.71279212015 L 301.06767968366,141.41537908682 L 310.54271071877,148.83782423727 L 304.46844886042,153.12004373753 L 303.67529743922,153.8327976841 L 302.78819746325,155.31976463211 L 302.43470110762,156.08347917657 L 302.2624613739,157.96246250383 L 302.13079181564,158.98651059322 L 301.77522656166,160.36275312413 L 300.97377879842,161.51613414885 L 299.76877577792,162.35850455146 L 297.98461040167,162.93557463795 L 297.40419181363,163.78088254039 L 296.86302407323,165.39160165709 L 296.51168247797,166.84329676177 L 296.17478468041,168.01443500077 L 295.81815724298,169.25984366611 L 295.68442783194,169.3486510914 L 295.63984151291,169.57109728817 L 295.50609828742,169.74892268717 L 295.37234828538,169.92675824557 L 295.28317552997,170.10466048858 L 295.0602438077,170.23789306337 L 295.01564746395,170.41586580423 L 294.88187058464,170.63824259233 L 294.88186520926,170.77176871454 L 294.88185293728,171.03881738075 L 294.8817644793,171.21680627477 L 294.881514912,171.3502030897 L 294.88101258511,171.61701293141 L 294.96994693843,171.83954077727 L 295.05904610514,171.97312217543 L 295.28214963905,172.10693169585 L 295.4159047226,172.24057539786 L 295.50499248204,172.37413949048 L 295.54934017153,172.55210682915 L 295.63831015393,172.73013017378 L 295.72687222428,172.90799043581 L 295.8601024902,173.08592669873 L 295.99352683678,173.21943157744 L 296.12695395859,173.35293950836 L 296.2602072858,173.53090421888 L 296.39364198236,173.66442130089 L 296.57173149172,173.79799000536 L 296.705006868,173.97597708544 L 296.92790610696,174.06512336856 L 297.01654673208,174.24307762783 L 297.15000146106,174.37661250751 L 297.23927901543,174.3766847689 L 297.41585251812,174.95510630024 L 300.12493713631,174.4623173871 L 301.32599674899,174.23713853008 L 302.53140756639,173.96920384281 L 304.13725414062,173.65810966506 L 332.16405575775,181.54150713237 L 352.51454402088,187.02259108044 L 395.04928623688,178.546799617 L 411.63250431038,180.30980012481 L 434.70028959819,172.70791311007 L 472.89275427632,127.21445442899 L 481.29832486492,82.20823743441 L 492.13177028445,78.626220942644 L 502.38434361056,69.408189256249 L 510.37978381663,71.08459648908 L 512.8124634491,68.908475501297 L 509.74794349191,62.223325631506 L 510.47964179413,60.962155870449 L 511.54938437501,59.701787265868 L 512.26834580376,58.754770595739 L 513.00271564402,57.48947055889 L 513.09468013716,55.894963486377 L 513.17539712752,54.304489551547 L 513.22482798358,52.727369433696 L 513.65377517537,51.132027917816 L 514.05718513914,49.858211017715 L 514.09892309973,48.905754477028 L 514.1545764937,47.635693314404 L 514.21023388439,46.365485805223 L 514.29373361623,44.459898254451 L 513.6757192849,43.190566441035 L 513.73133570881,41.920379011117 L 513.78696481039,40.650049311274 L 514.53038699376,39.058970120389 L 516.27343675806,37.779025411673 L 518.02036238784,36.496231349655 L 519.07877958278,35.533951000817 L 520.13864514785,34.570362706877 L 521.53993822206,33.60284292517 L 522.95128857683,32.629284614583 L 524.04932699736,31.330772489282 L 525.50773179123,30.641362876468 L 526.96441581882,29.64084057871 L 527.71210408433,28.660041203218 L 529.19305682659,27.644139913271 L 530.37390407752,26.292717933923 L 531.5440874907,25.259747805308 L 531.93294666309,24.287904824502 L 528.51401741284,21.583258315652 L 521.73174403007,22.640949244426 L 519.64287278813,24.208302262487 L 517.56336798782,26.807031774957 L 516.00729020083,27.843130861352 L 514.97638369986,29.394624446635 L 513.94921264734,31.46292934928 L 511.88268814257,34.05060180166 L 510.33715633954,36.637882518126 L 508.78748844968,38.708842352329 L 507.7481535694,40.788444945998 L 505.66440644294,41.830743570685 L 503.58676671609,42.347638825697 L 501.50898701635,42.864593194201 L 499.4310761198,43.381568000396 L 497.34736467005,44.423889580678 L 494.74562032357,45.464127989767 L 493.69838609764,46.510404143178 L 491.60348647732,48.083211400454 L 491.08236682423,50.164421420231 L 491.07099922703,52.25471549898 L 492.07424153375,54.88586457761 L 493.12361813804,56.957795756458 L 492.60176208507,59.038809806641 L 489.98385843443,60.092491784756 L 487.40580316002,60.074796527534 L 486.32951132871,58.025815487629 L 484.74425469445,56.489439430487 L 484.22931626033,55.96565710482 L 482.17115545232,52.828583145011 L 481.14275238263,50.738686059254 L 480.08919735093,48.673909387428 L 478.4994102467,46.108653544722 L 476.93787156303,44.553431338768 L 474.86498653563,42.988794580515 L 473.30860620177,42.985852126161 L 471.75213709637,42.982906844996 L 468.63889967501,42.977030045996 L 466.56318189742,42.973114828285 L 464.48625150477,43.490200950601 L 463.44512063085,45.051162738518 L 463.44093136503,47.134838370431 L 462.40198772865,47.653846782129 L 459.80606564714,48.170101261418 L 457.21091052551,48.165483497417 L 455.13458894486,48.16178839735 L 452.53808048922,48.678131777761 L 450.97974593079,49.196335229588 L 447.34450121432,49.710936389055 L 445.26518141412,51.27022779092 L 443.70515599502,52.830363164223 L 442.66372734776,54.912164216918 L 441.10662175663,54.388736188023 L 439.55119025301,52.302844948101 L 437.99419101378,50.219351846215 L 437.47622458572,48.656370692492 L 436.43889549658,46.572291411305 L 434.88148591268,44.488194512048 L 432.80279062166,43.446540927171 L 431.24289726001,43.447122483666 L 428.64313103297,43.448080911552 L 427.08235517023,44.491047217902 L 425.00225076839,45.012958621031 L 422.92268197606,45.013721519272 L 421.36303591938,45.014294611777 L 419.28461999643,43.451590544004 L 416.68584409166,42.410187073861 L 414.60692246388,41.368008462318 L 412.53274549434,39.25130135615 L 410.97343773371,37.684766882262 L 409.93424284674,35.596778260419 L 408.8948608898,33.508447506332 L 407.33533024778,30.897314249906 L 406.29524292527,29.852279555264 L 403.6941472227,29.327544075811 L 401.61312963327,28.803308492718 L 400.05229581516,28.279584314393 L 397.45065896669,27.23262227492 L 396.40988158387,25.665053804169 L 396.41069696972,23.077768404831 L 395.37100385256,20.490017007489 L 393.29062722062,18.936046520827 L 391.73074518203,17.382850643187 L 390.68980857858,16.334309211621 L 390.68992900364,15.293820482209 L 388.40079674081,10.238951693084 L 386.86182420546,12.301871162611 L 385.30578606764,13.858553438992 L 384.26379962445,15.420696836671 L 382.18017834976,16.983144863713 L 380.61741561475,18.545419220502 L 378.53396786444,19.587245627022 L 376.97125985115,21.149478724401 L 374.887771003,22.711852418308 L 372.28372889683,23.233230156299 L 369.67971680648,23.754609694445 L 367.5964317408,24.796366048866 L 364.9926211244,24.797163358791 L 362.90950370286,25.318362946653 L 360.82650348231,25.319011312979 L 358.22199986331,25.841028463241 L 356.13906297138,25.841668371394 L 354.05395596396,26.364841230533 L 351.44827184401,26.888139970319 L 348.84271826304,27.411427957611 L 346.75584860974,28.456962168397 L 344.66714253286,30.024767468111 L 342.57316041152,31.077614603142 L 340.50239449348,32.627711201593 L 337.91089640808,34.178062720341 L 336.34058725729,35.227785025133 L 333.75329968964,36.773695444508 L 331.67632640608,37.809343547024 L 330.11635191915,38.848573863599 L 328.03640693527,40.407629964345 L 326.4766148122,41.967119255179 L 324.91676153204,43.526667729454 L 323.87712307245,45.086608035905 L 321.79745882576,47.686399138409 L 320.23770194792,49.766402163748 L 319.19818977157,51.846814141438 L 318.15837033343,53.407022254563 L 316.07837834482,56.007279807117 L 315.03872318064,58.087958697458 L 314.51939981613,60.16898754733 L 314.52044471808,62.250367919945 L 313.48071637949,64.331267561867 L 312.96135265064,66.412500318718 L 312.96160854505,66.932886842505 L 311.92852441972,72.27599799819 L 311.05160607904,73.097114679386 L 309.90614820321,73.615826888122 L 309.3013571146,74.735995912099 L 308.98855655332,75.582188665885 L 308.66516529555,76.714579925774 L 308.59988245258,78.435169179062 L 308.27675357802,79.56627065571 L 308.22243665344,80.999272157779 L 307.62026671623,82.112670465761 L 306.614935912,84.575830645927" data-id="Douala-V"/> 
<path d="M 266.35183440087,187.36731949569 L 274.24800613019,185.6722140371 L 293.16614375629,191.70414818994 L 299.5413749795,191.25614498336 L 298.37995456473,199.22935092251 L 311.46421280053,202.05375307096 L 311.04603063913,209.73468809596 L 291.6336358405,238.03860655165 L 291.61980567048,242.49289354002 L 295.66353267661,242.08874140952 L 300.10983675428,242.09001590417 L 306.57588741223,246.54202063578 L 321.94245406105,260.70164504897 L 339.73911488638,268.38806282546 L 337.3090048889,283.36077324626 L 331.23237933845,284.18882200787 L 326.78289577474,287.018176095 L 330.82334940281,295.52813842436 L 323.13686685231,297.95127639341 L 328.80126646348,301.59443341157 L 332.44497825413,301.99390355285 L 332.44634799339,306.03577270018 L 327.99436419463,308.87110623271 L 327.99720859593,316.14553182648 L 321.92629332647,319.79177380587 L 316.66087466026,316.1626509938 L 314.63572311132,310.09691963382 L 307.76614794299,306.8430673122 L 299.26596359873,306.84820131304 L 291.97148712106,302.00709602946 L 282.65814843954,301.60864605779 L 276.60702581919,296.73261696514 L 266.91186884461,291.45905882762 L 262.47256637348,283.76430583799 L 257.61407935895,279.31737238724 L 247.46495869546,275.69717120625 L 239.38432416706,270.8350878327 L 241.33404826094,268.01463470857 L 241.72856294483,262.48118933836 L 244.67305298372,262.00162361737 L 247.38318661462,257.78031458536 L 245.1294091597,248.20926895695 L 262.91935360112,226.66442926966 L 248.1768502095,214.77832887792 L 256.42438364063,207.69486498388 L 255.98916515539,202.0555729628 L 249.76246047385,202.10437428344 L 247.28707671892,194.59038471163 L 264.41389706353,192.67965416599 L 266.35183440087,187.36731949569" data-id="Douala-II"/> 
<path d="M 306.32812537535,85.995580943742 L 306.50622416467,88.046805514683 L 306.45854662839,88.613901618354 L 306.79531747246,88.950908607857 L 307.132309049,89.288144588222 L 307.33776015775,89.739624488272 L 307.78750007002,90.189799759839 L 307.74856771109,90.642380343478 L 307.97344544746,90.86758576129 L 308.29132166692,91.431628139041 L 308.4966905964,91.882961714815 L 308.82446435815,92.334171781355 L 309.02572369697,92.786797216369 L 309.10184488035,93.239891947064 L 309.28872461645,93.80591317448 L 309.36464473859,94.258136149757 L 309.56292574161,94.71050708496 L 309.49299061302,95.386447838313 L 309.44644838229,95.836249614457 L 309.39997495413,96.285387266954 L 309.10109130408,96.842914574145 L 308.69256519575,97.286014982584 L 308.30607411028,97.505259782354 L 307.88943791231,98.05729900166 L 307.7268164016,98.499702293828 L 307.3224045741,98.938104331556 L 307.03990231504,99.376933533786 L 306.63755558856,99.812894270239 L 306.3967982056,99.809237468017 L 305.36069778552,100.67220903018 L 305.2335593518,102.09433007196 L 304.84778278902,102.41398837651 L 304.46298042834,102.73283779082 L 303.95141424276,103.15672763951 L 303.56886732894,103.47371097202 L 303.07896893164,103.67885542963 L 302.60088382742,103.77529358761 L 302.25474304366,103.76594350489 L 301.56377843811,103.74728771768 L 300.98932131102,103.73177704823 L 300.9696633167,103.94734254269 L 299.48206455521,105.1966783097 L 298.65303968385,106.98727079856 L 298.62372399847,107.41175335445 L 298.58978873785,107.83591501277 L 298.53848554487,108.47117475836 L 298.49400978814,108.99963327191 L 298.45848510009,109.42176312641 L 298.6550085546,109.85215056488 L 298.61939803424,110.27338675513 L 298.58384242694,110.69405887486 L 298.53946117221,111.21910488889 L 298.50400895882,111.63851502567 L 298.10453688599,112.25129340435 L 298.07823130156,112.5645908985 L 297.68049784019,113.1741932562 L 297.29284450408,113.67772410438 L 297.25845688279,114.09274034248 L 296.9952754322,114.49578852455 L 296.84690892063,114.90365163999 L 296.69035614098,115.41388467231 L 296.54258919131,115.82003656138 L 296.39509874831,116.2254183805 L 296.36150489473,116.63632470022 L 296.32795301778,117.04668480159 L 295.99913076033,121.32984325138 L 296.02818752403,122.76277918137 L 296.00480662339,123.16945829817 L 295.93985561038,123.87078568168 L 296.01556250691,124.27925541845 L 296.20397429783,124.69601171876 L 296.75942398163,124.83940573541 L 297.1933866617,125.0743711717 L 297.61843215145,125.40969951633 L 298.03964464714,125.74357846592 L 298.35462290309,125.96767529509 L 298.88797419756,126.20599572306 L 299.20951740492,126.32880075907 L 299.64664669678,126.46135536571 L 300.08519180799,126.69879267081 L 300.51540045716,127.0371982359 L 300.94616443123,127.37603537562 L 301.13886429938,127.79696194154 L 301.44625307637,128.22738440633 L 301.74450985357,128.75835756323 L 301.82230800584,129.16937312583 L 301.90004627006,129.58008236547 L 302.38116442872,131.99516962984 L 302.5553686194,134.34375031912 L 302.67015736774,134.73379652156 L 302.90447829353,135.38322307004 L 303.39226615232,136.15938594117 L 303.62693910232,136.8096635372 L 303.73721071729,137.33123939401 L 303.70882668782,138.11626555754 L 303.68518485351,138.77009092648 L 303.53722369255,139.29436631398 L 303.13163098414,139.82086006853 L 302.73144301249,140.21602927528 L 302.33193574673,140.61053066134 L 301.80493244979,141.00541123459 L 301.54415854996,141.13753065067 L 301.2744955431,141.52934569997 L 310.5761607878,148.85899141441 L 303.57991879727,153.7657588758 L 303.43152996547,154.30077307212 L 303.15446972684,154.84139040704 L 302.6116850019,155.65437566703 L 302.33186102763,156.32054775701 L 302.31765620926,156.71527305085 L 302.29399526599,157.37270356834 L 302.27508076247,157.89824557701 L 302.26095828002,158.29180084325 L 302.11065550799,158.94441796174 L 301.96114518184,159.59218578206 L 301.68949970433,160.10702928457 L 301.53978053442,160.75705433951 L 301.00451743983,161.54071830297 L 300.22597790991,162.06699430322 L 299.96405121186,162.32815061665 L 299.0712507741,162.59567765903 L 298.18136724297,162.86233536755 L 297.54079620978,163.25421213619 L 297.27308182214,163.77024883002 L 297.26030564262,164.15538838182 L 297.11808858013,164.66962438099 L 296.85093965148,165.18420348579 L 296.70057310048,165.95373266404 L 296.55878728033,166.46649714435 L 296.41290403027,167.10680542175 L 296.27555531711,167.49081897293 L 296.25453724852,168.13007644182 L 296.1089383082,168.7690147106 L 295.83900007201,169.40722922697 L 295.32509920845,169.91651011513 L 295.05613867339,170.55288727856 L 294.9114115765,171.18872871564 L 294.77080757256,171.69545428864 L 295.24970413037,172.20294252437 L 295.4897775923,172.45985397478 L 295.72158559851,173.09126114247 L 297.45488715289,174.82116432812 L 274.24990826508,185.61246814593 L 266.25145396315,187.52028374493 L 264.36312059442,192.70621985696 L 247.39237768053,194.59397755394 L 249.75049590369,202.13323956275 L 255.87602171733,202.13356322345 L 256.35046610344,207.78780212913 L 248.34326252344,214.85629463676 L 262.95934021575,226.6395639027 L 245.06043624419,248.32872757693 L 247.41616226023,257.75708851687 L 244.59318844239,262.0050589589 L 241.76878483008,262.48084065627 L 241.30127183504,268.21798495834 L 232.09626808756,267.40210148026 L 230.26191148987,267.22287608546 L 228.84789991643,268.52042290776 L 224.97899326587,267.52576445817 L 216.30078753502,273.02327386966 L 211.35820242485,276.63196060913 L 206.13582485942,280.48692289269 L 202.34149573412,282.10963749224 L 200.63471022904,282.13155667645 L 191.68291250595,272.99838930744 L 189.70199284451,269.99607373225 L 187.80807917167,266.09635899621 L 184.09322182534,261.10741190275 L 181.91448562006,258.9588368177 L 180.41540029768,256.71991673377 L 179.06989579065,254.16342651922 L 179.59598644814,252.14720395195 L 179.59590549807,251.97567981802 L 179.59574294233,251.63201358123 L 179.5955509242,251.2300393753 L 179.59541471631,250.9422264817 L 179.59530524079,250.71156260937 L 179.59522314562,250.53832537696 L 179.59505726234,250.19122601389 L 179.59492164805,249.90134129044 L 179.59478133032,249.61088011034 L 179.70753686754,249.44091602296 L 179.81902527173,249.09415093293 L 180.15243179079,248.63224522221 L 180.43155584665,248.28462986393 L 180.65556153436,248.0526415974 L 180.88025748363,247.81993864944 L 181.28219245385,246.46286906383 L 181.29190755724,245.39407727587 L 181.29407248338,245.15577351197 L 181.40975750613,244.91829214697 L 181.4688182725,244.67984953358 L 181.41311886794,244.55974426584 L 181.1880573271,244.31851740674 L 180.90578444288,244.13675191899 L 180.68118705673,244.01834215931 L 180.40096118478,243.96193145005 L 180.23521301934,243.72667626515 L 180.23767045623,243.48946264852 L 180.23951415638,243.31141967929 L 180.6354860719,243.06822503836 L 180.91877723076,242.94497734442 L 181.09113642593,242.70369956028 L 181.09398121467,242.46472755562 L 181.09540218971,242.34516134483 L 180.08989442329,241.46844385686 L 178.69322268713,239.80223544689 L 175.51274900793,236.22412248406 L 175.53350932822,235.05744798301 L 175.53660917072,234.88185773368 L 175.540746549,234.64752069682 L 175.5448885107,234.41293570741 L 175.55214598846,234.00181444745 L 175.55738734844,233.70791489449 L 175.50537592983,233.4126815338 L 175.28159721331,233.11420906422 L 175.05886366195,232.7567571977 L 174.77892702903,232.39800984584 L 174.61138087435,232.15919743196 L 174.55792310859,231.92192808836 L 174.44825557338,231.62459172 L 174.28550966762,231.09126393643 L 174.00600026907,230.73405125931 L 173.78361377183,230.3776133994 L 173.56217598251,229.96221113391 L 173.28228505172,229.664767022 L 172.88893414444,229.42717918511 L 172.60895668272,229.25020213651 L 172.21692499782,229.07372049546 L 172.10591672724,228.95599445075 L 171.88269975154,228.83863213658 L 171.32530272751,228.48432934653 L 170.65908622805,227.95371760871 L 170.21595283955,227.54094837634 L 169.60520764092,227.12651196264 L 169.16141231391,226.71129188799 L 168.9392852899,226.53293614037 L 168.60629430708,226.23584490621 L 168.27352229233,225.93895699849 L 168.16465646229,225.704697745 L 168.16592413556,225.40969129966 L 168.16693632757,225.17345817646 L 168.16829032333,224.69922631845 L 168.1130861657,224.28239415928 L 168.05779806118,223.86493029099 L 168.00241044601,223.38690784703 L 168.00231707872,223.02700085434 L 168.00224013511,222.72662611127 L 168.00208150284,222.12462945607 L 168.00195844712,221.64183359098 L 167.83522907187,221.2834498648 L 167.66849289074,220.98545455705 L 168.07411493892,219.78029092672 L 168.07306958138,219.5556194009 L 168.07106225408,219.27417782922 L 168.06859031532,218.99213653725 L 168.06451480498,218.59627814602 L 168.06109771757,218.08688709077 L 168.06034925983,217.69078215893 L 168.0613848703,217.23838217127 L 168.06242383534,216.78528014672 L 168.0632044018,216.4449948403 L 168.06257126305,216.04643637059 L 168.05861026783,215.58778839511 L 168.05612970154,215.30055180281 L 168.05364562497,215.0128671563 L 168.2133882679,214.67000188728 L 168.32103887487,214.55647669963 L 168.48232704364,214.32807507471 L 168.64354779889,214.04122415511 L 168.80554344317,213.81175933071 L 168.85824648062,213.52197952332 L 168.91031392475,213.11507673554 L 168.90837261311,212.76515936164 L 168.90815652082,212.59078921042 L 168.90772249754,212.241651924 L 168.90728633712,211.89197939883 L 168.90692364336,211.60017815236 L 168.90648680939,211.2495266559 L 168.9075368726,210.95869274422 L 168.90890001358,210.72649819198 L 168.910952246,210.37790288911 L 169.07511801431,210.14312212683 L 169.23905822506,209.90706447448 L 169.4583085239,209.67031925547 L 169.67810950717,209.43297812642 L 169.89616546325,209.25059777299 L 170.16913040509,209.00628664528 L 170.33349411888,208.88327947894 L 170.66362972411,208.6372322555 L 170.88475947405,208.51320406127 L 171.27320470715,208.32592490927 L 171.55136118924,208.13932113937 L 171.71836071463,207.95361180973 L 171.7736064176,207.76902161169 L 171.99740123662,207.58165186085 L 172.22166833129,207.33216140364 L 172.48488009127,207.21846642776 L 173.75926351431,207.33588449833 L 173.94633912865,207.67226992216 L 174.13493072719,207.86719592132 L 174.2595551231,208.06384879157 L 174.31883580744,208.3286261478 L 174.37687665624,208.65986995497 L 174.43859702081,208.79154645125 L 174.42790031378,209.39385927427 L 174.29500030319,209.66284909084 L 174.03454644725,209.9328791752 L 173.77708269392,210.0690959618 L 173.64642073624,210.26997576987 L 173.451387083,210.5374781747 L 173.31920106042,210.86995485777 L 173.18730868533,211.20169049003 L 173.11994659413,211.46630751656 L 172.92443894812,211.86305304727 L 172.79442636256,212.12691011115 L 172.72662312411,212.45570335998 L 172.59628561926,212.78465210072 L 172.46482028814,213.17668149715 L 172.39818514817,213.43743715739 L 172.26498947015,214.02502672905 L 172.13402189792,214.48068073563 L 172.06827014918,214.74056344992 L 172.25145658736,215.0678503763 L 172.43582040094,215.3308723072 L 172.62022303581,215.59399322177 L 172.80376042777,215.92216197137 L 172.9872816866,216.25032449935 L 173.23360388188,216.57995239038 L 173.54167045143,216.97555138068 L 173.78796161948,217.3050725684 L 173.90790911189,217.69783220732 L 174.09147769779,218.02664766723 L 174.21257040173,218.28716592015 L 174.39766990945,218.48472884933 L 174.71018765016,218.62173173484 L 174.70392583071,218.94260225958 L 174.82258648621,219.33164007622 L 175.13169659606,219.66209687067 L 175.31854605381,219.79607752708 L 175.50425713648,219.99459731733 L 175.87730646641,220.32753423308 L 176.18739216353,220.65897945537 L 176.43420958851,220.9886907446 L 176.68111156897,221.31851761191 L 176.92961788964,221.58418638019 L 177.04934380554,221.90982117859 L 177.36023465708,222.24216156157 L 177.67300640231,222.51063386101 L 177.9894304717,222.65102732235 L 178.36716099077,222.92262015623 L 178.74726521425,223.13040547507 L 179.12629572439,223.40288008186 L 179.31238481491,223.66782719962 L 179.56676617333,223.80704786228 L 179.69407744491,223.87672361339 L 179.95094098476,223.9519097025 L 180.21017511729,223.96284051441 L 180.59993083045,223.97927338136 L 181.1195925808,224.00098372925 L 181.58017100409,224.02072116676 L 181.9789678394,223.90778313304 L 182.37675004695,223.85937949698 L 182.70917261368,223.80803835481 L 183.10865785172,223.75927123111 L 183.50938169356,223.71035262144 L 183.84188567455,223.72389882241 L 184.11144787325,223.66939198111 L 184.58535702476,223.55732802002 L 184.85658551606,223.50246544831 L 185.26303517699,223.45281425991 L 185.67077481183,223.40300548963 L 185.94438307746,223.34773629176 L 186.56460889586,223.17332589399 L 187.04449022516,223.1254136602 L 187.45768904111,223.07472571789 L 187.73505100894,223.01869194925 L 188.00588113399,223.09558118188 L 188.1991485734,223.36944180077 L 188.40674358654,223.37750067526 L 188.4916966329,223.04727141902 L 188.71996019384,222.65462562881 L 188.73482546641,222.38716518062 L 188.96490405852,221.99235656533 L 189.1149466589,221.79558698728 L 189.40436587924,221.60298698451 L 189.76440243082,221.41205863328 L 190.11767801488,221.35570785431 L 190.4678505751,221.36688570022 L 190.82059599318,221.3778875785 L 191.022657482,221.58756286801 L 191.2923242569,221.86738642716 L 191.41669094793,222.1429352647 L 191.61936692639,222.28560942766 L 191.97979853822,222.1624866279 L 192.27485073542,221.96869387712 L 192.64591556918,221.70866828781 L 192.73417435257,221.43850532609 L 192.7602496898,221.02902352196 L 192.78202041047,220.68713874468 L 192.73265809445,220.34260703934 L 192.54274019833,219.92552479993 L 192.34259704305,219.71373642708 L 191.99781148969,219.49887943009 L 191.7243094889,219.28617843471 L 191.51471803527,219.21245483877 L 191.1708368443,218.99847326109 L 191.11091030194,218.79129759963 L 191.12190167159,218.58561090133 L 191.14024164806,218.24239729984 L 191.15493267947,217.96746324752 L 191.31562418418,217.62602085313 L 191.54055587466,217.42308023505 L 191.84128854066,217.15175003819 L 192.36596783723,216.74428782375 L 192.72947258534,216.68045192219 L 192.87753042759,216.6131321737 L 193.40255191879,216.27246271538 L 193.9980456391,216.0013436062 L 194.5922776084,215.79907255156 L 195.03870969428,215.66432792046 L 195.40900251155,215.598647587 L 195.78029029951,215.53279083643 L 196.07893801946,215.46585205793 L 196.38277838083,215.32803615104 L 196.90478937686,215.26328490321 L 197.13641344564,215.12396233773 L 197.66129937478,215.0586505052 L 198.18811658211,214.99310071656 L 198.57189935347,214.85437415469 L 198.44166288035,214.56728685161 L 198.30653007425,214.35160489704 L 198.17658680691,214.06429509115 L 197.98563173829,213.63146849404 L 197.86955754224,213.19858015908 L 197.90245394348,212.76597456976 L 197.92700863198,212.33650544531 L 197.78890624456,212.12154713143 L 197.50473887713,211.83513651935 L 197.22087257711,211.54902748789 L 197.01613253213,211.19134951863 L 196.75246495884,210.547257478 L 196.62258483568,210.18928556486 L 196.65040318776,209.68613904856 L 196.6832356744,209.17883582075 L 196.47035060686,208.96498877435 L 196.2483817423,208.89638091116 L 195.79674592883,208.90395342158 L 195.49900330921,208.90720177497 L 195.20185926485,208.9104428219 L 194.9053113755,208.91367655228 L 194.5391314269,208.84612468526 L 194.02643080484,208.78040367427 L 193.73573723495,208.71233354934 L 193.37221167502,208.64525452627 L 193.08267942956,208.57744009898 L 192.65272708377,208.43887851785 L 192.07879290013,208.30203491783 L 191.86487495659,208.23306070838 L 191.50671524065,208.16563463276 L 190.85816690015,208.1722298595 L 190.35872607054,208.10656865601 L 189.86384140746,207.97041615867 L 188.80550031383,207.76905344952 L 187.96561768041,207.56593696408 L 187.05524567845,207.43665723103 L 186.42878457837,207.30553047089 L 185.6657795713,207.1760630343 L 185.32032192161,207.11108711153 L 184.76996593655,206.9796392971 L 184.49545112992,206.91407679449 L 184.22355624359,206.77931359077 L 183.74547663457,206.64779375783 L 183.47889281663,206.37509231772 L 183.13776868114,206.3113278516 L 182.86996932225,206.10815226781 L 182.60541871573,205.83385021378 L 182.07967976403,205.21454414952 L 181.68456082979,204.80161368142 L 181.41689766793,204.666830022 L 181.08384598046,204.46351596392 L 180.88894249105,204.18738307302 L 180.69195282686,203.98146413837 L 180.49713758195,203.70545104216 L 180.23264961537,203.50134070118 L 180.17319045033,203.22210046553 L 180.17931292052,203.011226887 L 180.18952913231,202.65936503422 L 180.19361976262,202.51847541677 L 180.22120816562,202.60265592675 L 193.15422513831,193.71993710307 L 193.32858352695,191.9517869048 L 205.56603686128,182.8450303776 L 213.0092067589,178.35176415539 L 217.17446392753,173.56832382628 L 219.14188464858,171.21909769959 L 219.90357666415,170.49838554244 L 220.08161172824,170.19238069826 L 220.26031315812,170.01058011375 L 220.55905684489,169.83201210037 L 220.67876758679,169.71031117806 L 220.91869420887,169.40360080812 L 221.09905252414,169.28304185532 L 221.34012303526,169.0379632901 L 225.42742358918,163.98222766822 L 225.61780085788,163.78847951439 L 225.68134447533,163.72381022278 L 226.12546122829,163.40096175042 L 226.38118542012,163.14088125801 L 226.6372827012,162.87865885516 L 226.89305372376,162.68132711005 L 227.15278650701,162.28534963038 L 227.41007251051,162.08658064616 L 227.66921432824,161.82077106617 L 228.12336431025,161.41992214541 L 228.45135536206,161.01720886365 L 228.71502057693,160.68032754837 L 228.78207573562,160.54536857681 L 229.11155988956,160.20659832882 L 229.37608669692,159.934618807 L 229.64293321346,159.5938460953 L 229.97739005709,159.18368870064 L 230.17934185298,158.90994088027 L 230.58811750412,158.22348448143 L 230.72602540267,157.9480742478 L 230.93005294098,157.6712140929 L 231.0686744471,157.39452509275 L 231.41120320614,156.90733149415 L 231.61710124455,156.62778978802 L 232.02485514022,156.27472556369 L 232.30099890578,155.9221530032 L 232.578571809,155.56611756856 L 232.92650481973,155.13663345878 L 233.34211718728,154.70910719361 L 233.76719648398,154.0025847249 L 233.97750654495,153.78379122045 L 234.26351356215,153.34891556728 L 234.4117615049,152.9882804582 L 234.62754025343,152.62873601596 L 234.97862138575,152.33453845329 L 235.12477525043,152.04682352309 L 235.26432462427,151.9713941845 L 235.69311346174,151.4611604619 L 236.05595322507,150.9472376353 L 236.34626170499,150.57638073696 L 238.74186429876,147.65773933641 L 240.02642708204,147.01593553516 L 240.24464102455,146.87165834654 L 240.46696706604,146.65599199347 L 240.76060784142,146.43881252877 L 240.98423579559,146.22197338007 L 241.35782880293,145.85981615117 L 241.51064835476,145.64392548245 L 241.73831474609,145.3554425228 L 241.95925643042,145.20947495131 L 242.25464353206,144.99182750516 L 242.54910819441,144.77560456796 L 242.77519712129,144.55687211404 L 243.14518402389,144.33579922285 L 243.80032185924,143.60958786611 L 245.50297324319,142.47980760034 L 245.71399672709,142.20962658815 L 245.86082929904,141.87002127954 L 246.07532815059,141.53011348858 L 246.2852226135,141.32630349827 L 246.49823580689,141.05339780115 L 246.71179679106,140.77979122733 L 246.85538274498,140.57403415913 L 247.07263477457,140.23017280433 L 247.28772032459,139.95450026602 L 247.50389142422,139.67734610593 L 247.65917928913,139.25874196705 L 247.87410034335,139.048697891 L 248.08946240206,138.83826443285 L 248.30506983722,138.62773017314 L 248.45220396407,138.41700344375 L 248.67734550388,137.99593371675 L 248.89396005506,137.78434152698 L 249.1777815285,137.64151734823 L 249.53208580678,137.49755457866 L 249.814496325,137.42421256458 L 249.96346532457,137.21174955801 L 250.24998810229,137.0675216095 L 250.45452652159,137.20577666209 L 250.65815730078,137.34551256749 L 250.9281280536,137.55629553219 L 251.27958339381,137.55375591431 L 251.43517017307,137.26823962623 L 251.65800143348,137.05272662445 L 251.94834889089,136.90744960044 L 251.75121624654,136.62370915728 L 251.39680560097,136.62868175071 L 251.04323226778,136.63366286603 L 250.69050924023,136.63862975542 L 250.48857894599,136.42969892354 L 250.21296526978,136.2932337341 L 250.01315480103,136.01574804241 L 249.88634988764,135.66687225534 L 249.89722387168,135.38561001526 L 249.91083260155,135.03365043005 L 249.92445694747,134.68126424173 L 249.93977526755,134.32573389539 L 250.03206799015,133.82485050122 L 250.11500535997,133.53754001663 L 249.98734213296,133.2533714001 L 250.00324848664,132.89476643815 L 250.01923101071,132.53548520159 L 250.03197893638,132.24775395133 L 249.89987642159,132.03633280563 L 249.62665794668,131.82900384438 L 249.28036318063,131.69568338167 L 248.9364755695,131.49315412455 L 248.81053312755,131.13849802523 L 248.53762232002,130.93366803268 L 248.32654427168,130.94229217142 L 248.11001229803,131.0947699447 L 247.88540425059,131.46221226802 L 247.80362102384,131.75266310774 L 247.7184045545,132.11580397616 L 247.3617141268,132.27750873247 L 247.00641758352,132.43857582508 L 246.7892136756,132.66254264452 L 246.50425830836,132.88658853844 L 246.28638801536,133.24264598089 L 246.27739790458,133.5220236666 L 246.33905768655,133.73029123745 L 246.19335015891,134.01133765841 L 245.84771451364,134.15569580818 L 245.50080351524,134.3691555575 L 245.2926913052,134.51082479285 L 245.01253877821,134.79297022171 L 245.07828388943,134.86113815556 L 245.48364192267,134.92428765961 L 245.89173008954,134.91921281843 L 246.23257261839,134.91497656725 L 246.57601486882,134.90642520824 L 246.78386265815,134.89828031029 L 247.12639230984,135.02426435868 L 247.18880266161,135.23091541726 L 246.97323221203,135.44773521396 L 246.82515861546,135.7310450445 L 246.67741470823,136.01372417677 L 246.4632721673,136.22875743591 L 246.18795752894,136.30140565095 L 246.04525072631,136.50984630336 L 246.0342213768,136.85505358478 L 245.82832808553,136.92534730208 L 245.48883249635,136.9288407306 L 245.2177834943,136.93161751659 L 244.95358365658,136.72768300807 L 244.81641575782,136.79779484899 L 244.66915798261,137.21129501151 L 244.66301837736,137.41717781121 L 244.64871083489,137.89700549488 L 244.5727421883,138.17251729283 L 244.55970649971,138.58472330689 L 244.48163435343,138.92811626969 L 244.40371147174,139.27085429104 L 244.33019816603,139.47630349942 L 244.11445906396,139.95471628249 L 243.91388807848,139.95530120968 L 243.50560176613,140.22825116338 L 243.16723405041,140.43230237206 L 242.8904602361,140.83853833457 L 242.68445967456,141.10853658639 L 242.41486864244,141.31037832736 L 242.27762891253,141.51201226148 L 241.94350820302,141.71264632588 L 241.74146453187,141.91316936946 L 241.47446090487,142.11294073427 L 241.20817294501,142.3121758403 L 240.81406103709,142.44343225822 L 240.54942150632,142.64181853533 L 240.28526108004,142.8414391795 L 240.08660385728,143.040166407 L 239.95315401767,143.2367779734 L 239.69105532911,143.43192391978 L 239.49243767196,143.69371693026 L 239.30383036059,143.49511710407 L 239.24507213845,143.23170401835 L 239.24916248383,143.03359114427 L 239.25327471611,142.83466888874 L 239.26150929878,142.43626110905 L 239.26838560524,142.10367989147 L 239.27526941025,141.77057384335 L 239.28353277196,141.37098053573 L 239.35496370272,141.03778700954 L 239.42512760955,140.77079965125 L 239.42932741206,140.57027999271 L 239.4363320772,140.23569759921 L 239.50810902099,139.90050210782 L 239.64631807839,139.49725427181 L 239.85284748949,138.95774525643 L 239.99641661352,138.34910305952 L 240.13594697784,137.94173079332 L 240.34593378147,137.32865749925 L 240.41767107928,137.05568939719 L 240.42234106421,136.85135604269 L 240.43325342588,136.37389995586 L 240.44106013697,136.03227365179 L 240.44887889466,135.69016064838 L 240.46298142061,135.07312251013 L 240.47385402861,134.59361370192 L 240.48461032348,134.11489021606 L 240.49248239196,133.77018939423 L 240.49899078543,133.49156398192 L 240.5698792774,133.28202882132 L 240.70866153907,133.00137037164 L 240.78147207334,132.72141779929 L 240.85431765339,132.44186426566 L 241.06506326041,131.95076891089 L 241.07173652795,131.67201656013 L 241.07841672706,131.39294483194 L 241.08674784549,131.04400551877 L 241.16001763681,130.76331923952 L 241.1667204748,130.48359359087 L 241.17342996667,130.20355627302 L 241.18182799715,129.85307149323 L 241.18855477964,129.57233152635 L 241.19192104911,129.43184308691 L 241.15584554466,128.37783758506 L 241.18430020401,127.30500641515 L 241.1950090536,126.90128297352 L 241.20394774508,126.56425605251 L 241.21648582273,126.09151365237 L 241.22007349962,125.95625092946 L 241.2305741822,125.55111921354 L 241.23932538867,125.21305277388 L 241.24808652485,124.87450389545 L 241.19256445454,124.46845611352 L 241.06920203719,124.13083218406 L 241.19236394859,121.82217657629 L 241.1957273449,121.68591420037 L 241.21808820509,120.7959013037 L 241.24490538243,119.75930730282 L 241.25735887129,119.27463162565 L 241.26444792522,118.99746374592 L 241.2768316017,118.51197477456 L 241.28914231883,118.02619150174 L 241.29971299132,117.60906683375 L 241.30853529419,117.26093829997 L 241.31560289401,116.9820946656 L 241.32621683252,116.56325806057 L 241.3350751214,116.21370100755 L 241.34749759986,115.72351553657 L 241.28942589367,115.37410604259 L 241.29827777864,115.02298102702 L 241.4937199907,114.00592671589 L 242.20439662336,113.99761790281 L 242.59320222418,113.99307290209 L 242.85286375504,113.9900364662 L 243.17795624513,113.98623608154 L 243.50362450184,113.98242846122 L 243.89379669731,114.04640634301 L 244.22070616715,114.04197757542 L 244.61244492472,114.10248665985 L 244.87356930018,114.16602795276 L 245.13373377588,114.29539543684 L 245.39435555615,114.42395976866 L 245.5909771218,114.48538343202 L 245.91865434671,114.6113835942 L 247.03762998761,115.05591090254 L 247.16943175492,115.12086095117 L 247.43552564761,115.18037899689 L 247.76267978485,115.44902446946 L 247.9600949123,115.58216616239 L 248.29050691651,115.78016957959 L 248.48689237414,115.98114836773 L 248.74900796647,116.24939541987 L 248.87783840891,116.45363919451 L 249.14275980532,116.65235931663 L 249.41053752527,116.78135256277 L 249.53967652925,116.98602951863 L 249.80527634111,117.18636099123 L 250.13815253158,117.38851167969 L 250.33500359635,117.59396686459 L 250.53195536994,117.79952735615 L 250.87125980924,117.86239644068 L 251.07137477103,117.99828232664 L 251.26888240086,118.20432862927 L 251.40623034769,118.20167045267 L 251.6534136938,118.7657235305 L 252.45087234844,119.32043378271 L 252.65138482006,119.45799708024 L 252.99356130594,119.52381496961 L 253.33303671965,119.72575358506 L 253.67790703139,119.85618692235 L 254.01596870152,120.1285637224 L 254.42303785171,120.4024625776 L 254.76423980251,120.60756123917 L 254.96437309829,120.81568175903 L 255.16049445998,121.09457925997 L 255.22311346249,121.2346282644 L 255.55699362515,121.5819005467 L 255.89977775529,121.78841301817 L 256.10053216745,121.997179002 L 256.37279380373,122.20519413902 L 256.56938653425,122.48474428113 L 256.77050871723,122.69389302409 L 256.96717644913,122.97354544493 L 257.1638597284,123.25322022532 L 257.43235538953,123.53248433737 L 257.71053102217,123.67142794778 L 257.91227706687,123.88122636209 L 258.18630584849,124.09089337254 L 258.39327162836,124.23074641466 L 258.67097664157,124.37167564897 L 258.9471790112,124.51387069525 L 259.21617064621,124.79533215955 L 259.4183214521,125.00637930924 L 259.62056667796,125.21752430292 L 259.90682046566,125.22069099304 L 260.19363717197,125.22386095625 L 260.46364602752,125.50632834951 L 260.66613296976,125.71833620466 L 260.86339654069,126.00051126948 L 261.05741575137,126.28392554789 L 261.1885619817,126.49476350868 L 261.52246883055,126.91781301066 L 261.72125360883,127.19946276155 L 262.19896281026,127.62584443472 L 262.53756909848,127.98023676728 L 262.80862722314,128.26393117534 L 263.07983896983,128.54778772733 L 263.27905158728,128.83000464067 L 263.55482996088,129.04492356792 L 263.76291364799,129.18893262188 L 264.12480831807,129.1983399277 L 264.38806193364,129.62158144373 L 265.00116007497,129.1515296029 L 265.37507656735,129.02177369804 L 265.60822113889,128.81833097875 L 265.92709024561,128.40709574363 L 266.15658895001,128.20345412145 L 266.30980955794,128.06749462501 L 266.49284823761,127.64839042962 L 266.50804650818,127.5065884026 L 266.68780237741,127.15587169576 L 266.78828851309,126.87350338637 L 266.9759453781,126.44957422036 L 267.09110958769,126.02257682747 L 267.25868302736,125.81085503612 L 267.29413293533,125.45208773924 L 267.3878451002,125.23817960091 L 267.48441847691,124.95333067155 L 267.66155786912,124.59720363845 L 267.91422286109,124.24094872904 L 268.25418908693,123.74022437423 L 268.49732082163,123.52580699267 L 268.59558064105,123.23739906224 L 268.629808904,122.80308951448 L 268.65315715155,122.51285337049 L 268.68417362948,122.14870798662 L 268.7028124305,121.92988850683 L 268.73412684825,121.56454003639 L 268.75955958412,121.27160063584 L 268.79777960039,120.83133382126 L 268.82331101713,120.53724776035 L 268.91231276327,120.38994026326 L 269.4105493206,119.94578541219 L 270.57676067657,118.90375681069 L 271.05578546331,118.75121170317 L 271.31427047614,118.45147634747 L 271.56733311048,118.22548765601 L 271.82077835103,117.9990617808 L 272.30997660461,117.76970867252 L 272.63717725256,117.6163062555 L 272.97170189807,117.38731883581 L 273.06359552499,117.23590230073 L 273.33337780677,116.85605672389 L 273.58422566734,116.70179296537 L 273.76280248151,116.47268461832 L 274.18729707458,116.16359984793 L 274.44006535106,116.00797312103 L 274.76655514373,115.92678307648 L 275.10068684037,115.76921364264 L 275.26808643941,115.69027195846 L 275.70884460525,115.10645174052 L 276.35593764011,114.32431937928 L 276.63795594639,114.13122361566 L 276.9892056319,113.93949628578 L 277.34157247482,113.74715974322 L 277.62255457708,113.61994074368 L 277.97535137893,113.42704170496 L 278.32918580708,113.2335758832 L 278.6148144504,113.03780555254 L 278.89810174128,112.90929655259 L 279.17892849317,112.8483253848 L 279.46345687989,112.71932795392 L 279.825502384,112.45537444764 L 280.11380150738,112.32480872453 L 280.33217150742,112.19253235128 L 280.62529895093,111.99289136927 L 280.84856750933,111.79129790446 L 281.07624222721,111.52043754923 L 281.2413731892,111.10971248218 L 281.54532314696,110.76919549181 L 281.62398220171,110.63218375477 L 281.63403647551,110.4252981832 L 281.87377432993,109.94385231161 L 282.10406379878,109.66871158016 L 282.26252455443,109.39235789563 L 282.49736850148,109.04627889261 L 282.6531475775,108.83820757376 L 282.81274449521,108.56000933323 L 283.04921625518,108.21150060762 L 283.35959334317,107.86200055339 L 283.59400424847,107.58152041219 L 283.75551092797,107.3004031346 L 283.99472192507,106.94804855081 L 284.22718528275,106.73579028487 L 284.4602232709,106.52300687494 L 284.69383966188,106.30969577425 L 284.85754327937,106.02544461651 L 285.02159610894,105.74058235813 L 285.18500940475,105.45570655696 L 285.19836269152,105.17242787285 L 285.28675123083,104.88786258612 L 285.29393949534,104.74567541606 L 285.64991186405,103.8779175837 L 285.93319011833,103.00577601521 L 286.10302414686,102.71275808382 L 286.34849705301,102.41775287594 L 286.68035437796,101.97426023205 L 287.00800404027,101.6025779749 L 287.17297882831,101.24163755799 L 287.41643009049,100.80704454837 L 287.50376188575,100.517945403 L 287.52168020202,100.1555736889 L 287.539794976,99.862430183616 L 287.7118745246,99.563657341093 L 287.89354612368,99.116966056729 L 287.99380217499,98.745667290135 L 288.17169298741,98.370583921235 L 288.34538114323,98.068550232963 L 288.6114432686,97.539883825245 L 288.71594969412,97.162357722285 L 288.82069353297,96.78396875327 L 289.0033461662,96.401538056699 L 289.09763512598,96.172199690795 L 289.35906687718,95.784671228486 L 289.61576458105,95.47161102371 L 289.94596914195,95.230007704066 L 290.18716064102,95.143370002553 L 290.73527138954,94.48371694346 L 291.36352195389,93.692543927141 L 291.58094875033,93.564553227196 L 291.81520810298,93.300001800582 L 292.05083519167,93.10297830705 L 292.36039175754,92.839555987078 L 292.5196645044,92.638945852494 L 292.75895356832,92.303063979018 L 293.06798764099,92.037436943701 L 293.2205569938,91.904490699761 L 293.52573937897,91.638115009493 L 293.75858002163,91.368813696949 L 294.06481885009,91.101156545371 L 294.21865922708,90.829340059259 L 294.37529603404,90.488036080942 L 294.47617934442,89.935070214622 L 294.56492270611,89.727789496103 L 294.74279262299,89.312333454452 L 294.83703858297,89.03413051265 L 295.08456536869,88.688530699701 L 295.18452433704,88.338787872438 L 295.34849357496,88.130690610579 L 295.66672633239,87.854544518197 L 295.83601559314,87.574967613781 L 296.00567317527,87.294784038586 L 296.25576594198,86.944288208443 L 296.42631802907,86.662696415615 L 296.75645268301,86.310389340159 L 296.93120100718,86.026327474234 L 296.95880044059,85.668836086029 L 296.98248915723,85.312055191682 L 297.14282240851,85.170889043785 L 297.70322701021,84.676083169764 L 298.94564892979,83.666140379099 L 299.20026927279,83.446891682108 L 299.52919013174,83.228663569028 L 299.69730731145,83.082688582557 L 300.09391915278,82.938731579053 L 300.4008660061,82.940913758731 L 300.78769100996,82.942745559696 L 301.25479244632,82.94435755739 L 301.65066959488,82.943705879192 L 301.98078696751,82.796077036641 L 302.31185999239,82.648022278441 L 302.57685198226,82.352109107025 L 302.75610521031,82.129684160857 L 303.02243314033,81.832239831223 L 303.36343734886,81.607675436803 L 303.5508852776,81.309109522392 L 303.81957678297,81.009130940547 L 304.00138948086,80.783740178617 L 304.49751586678,79.971454746216 L 304.87996690654,79.73202788251 L 305.15794425143,79.265418898799 L 305.30997547959,78.913788527019 L 305.59796225811,78.439600327575 L 306.14342043194,77.839393625245 L 306.55782016973,77.357545133547 L 306.60214701286,76.887154702665 L 306.79342459116,76.175227154578 L 306.83966916429,75.591370828301 L 307.24418240339,75.112838157707 L 307.73872331878,75.095754066011 L 308.49125195909,74.953147509633 L 309.11286912642,74.931526448254 L 309.09506667347,75.165616029579 L 308.80201468611,75.758542897649 L 308.65133524234,76.112834889803 L 308.60694871275,76.696079642626 L 308.68879093621,77.162587898082 L 308.78134527403,77.511178775815 L 308.71608651055,78.216271833018 L 308.67008145359,78.687105273835 L 308.61544209582,79.273036327696 L 308.57919487168,79.736725393528 L 308.52490431799,80.431323273291 L 308.47972212174,81.009300342379 L 308.31817200106,81.474991316214 L 308.16610407827,81.824539560326 L 307.87190423027,82.40697858869 L 307.59696029735,82.757912955541 L 307.31333245179,83.223054108793 L 307.03033859413,83.687157409878 L 306.98182954839,84.261491752937 L 306.9292198824,84.837032692339 L 306.88524749525,85.297713130092 L 306.71844010514,85.759787886115 L 306.32812537535,85.995580943742" data-id="Douala I"/> 
</g>

</svg>
